<svg width="32" height="32" viewBox="0 0 32 32" fill="none" xmlns="http://www.w3.org/2000/svg">
<path d="M3.37327 19.6928C3.08973 21.5515 4.35737 22.8416 5.90945 23.4846C11.8598 25.9495 20.1403 25.9495 26.0906 23.4846C27.6427 22.8416 28.9104 21.5515 28.6268 19.6928C28.4526 18.5505 27.5909 17.5993 26.9526 16.6705C26.1164 15.439 26.0333 14.0957 26.0332 12.6666C26.0332 7.14378 21.5412 2.66663 16 2.66663C10.4589 2.66663 5.96687 7.14378 5.96687 12.6666C5.96675 14.0957 5.88367 15.439 5.04752 16.6705C4.40916 17.5993 3.54752 18.5505 3.37327 19.6928Z" stroke="#B0B0B0" stroke-width="1.5" stroke-linecap="round" stroke-linejoin="round"/>
<path d="M10.6666 25.3334C11.2779 27.6337 13.434 29.3334 16 29.3334C18.5659 29.3334 20.722 27.6337 21.3333 25.3334" stroke="#B0B0B0" stroke-width="1.5" stroke-linecap="round" stroke-linejoin="round"/>
</svg>
